<svg width="383" height="429" viewBox="0 0 383 429" fill="none" xmlns="http://www.w3.org/2000/svg">
<g filter="url(#filter0_b_157_657)">
<path d="M380 388.803V18C380 9.71573 373.284 3 365 3H36.8109C32.0444 3 27.5616 5.2654 24.7344 9.10293L5.92349 34.636C4.02444 37.2137 3 40.3315 3 43.5331V366.5C3 374.784 9.71573 381.5 18 381.5H160.341C164.869 381.5 169.155 383.546 172.003 387.066L198.997 420.434C201.845 423.955 206.131 426 210.659 426H344.609C348.808 426 352.815 424.24 355.655 421.148L376.046 398.951C378.589 396.183 380 392.561 380 388.803Z" fill="url(#paint0_linear_157_657)"/>
<path d="M380 388.803V18C380 9.71573 373.284 3 365 3H36.8109C32.0444 3 27.5616 5.2654 24.7344 9.10293L5.92349 34.636C4.02444 37.2137 3 40.3315 3 43.5331V366.5C3 374.784 9.71573 381.5 18 381.5H160.341C164.869 381.5 169.155 383.546 172.003 387.066L198.997 420.434C201.845 423.955 206.131 426 210.659 426H344.609C348.808 426 352.815 424.24 355.655 421.148L376.046 398.951C378.589 396.183 380 392.561 380 388.803Z" stroke="#058585" stroke-opacity="0.25" stroke-width="6"/>
</g>
<defs>
<filter id="filter0_b_157_657" x="-62.4" y="-62.4" width="507.8" height="553.8" filterUnits="userSpaceOnUse" color-interpolation-filters="sRGB">
<feFlood flood-opacity="0" result="BackgroundImageFix"/>
<feGaussianBlur in="BackgroundImageFix" stdDeviation="31.2"/>
<feComposite in2="SourceAlpha" operator="in" result="effect1_backgroundBlur_157_657"/>
<feBlend mode="normal" in="SourceGraphic" in2="effect1_backgroundBlur_157_657" result="shape"/>
</filter>
<linearGradient id="paint0_linear_157_657" x1="191.5" y1="3" x2="191.5" y2="426" gradientUnits="userSpaceOnUse">
<stop stop-color="#058585" stop-opacity="0.25"/>
<stop offset="1" stop-color="#2CB7C1" stop-opacity="0"/>
</linearGradient>
</defs>
</svg>
