<svg width="304" height="135" viewBox="0 0 304 135" fill="none" xmlns="http://www.w3.org/2000/svg">
<path d="M2 106.473V14.6256C2 6.54811 8.54811 0 16.6256 0H140.288C142.64 0 144.958 0.56736 147.044 1.65395L164.094 10.5341C166.18 11.6207 168.498 12.188 170.85 12.188H231.414C235.293 12.188 239.013 10.6471 241.756 7.90427L245.377 4.28375C248.12 1.54091 251.84 0 255.719 0H275.836C281.058 0 285.884 2.78442 288.498 7.30546L300.349 27.8046C301.635 30.0298 302.313 32.5546 302.313 35.1248V103.15C302.313 107.593 300.293 111.795 296.824 114.571L277.068 130.376C274.474 132.45 271.252 133.581 267.931 133.581H126.186C121.936 133.581 117.896 131.732 115.117 128.515L114.605 127.921C111.827 124.704 107.786 122.855 103.536 122.855H75.1465C71.38 122.855 67.7588 124.308 65.0369 126.912L62.3058 129.524C59.584 132.128 55.9627 133.581 52.1963 133.581H23.3867C18.0192 133.581 13.083 130.641 10.5265 125.921L3.76543 113.439C2.60679 111.3 2 108.906 2 106.473Z" fill="url(#paint0_linear_157_310)" stroke="#058585" stroke-opacity="0.25" stroke-width="2.4376"/>
<defs>
<linearGradient id="paint0_linear_157_310" x1="152.156" y1="0" x2="152.156" y2="133.581" gradientUnits="userSpaceOnUse">
<stop stop-color="#058585" stop-opacity="0.25"/>
<stop offset="1" stop-color="#4BD5DF" stop-opacity="0.05"/>
</linearGradient>
</defs>
</svg>
